<?xml version="1.0" encoding="UTF-8" standalone="no"?>
<!DOCTYPE svg PUBLIC "-//W3C//DTD SVG 1.1//EN" "http://www.w3.org/Graphics/SVG/1.1/DTD/svg11.dtd">
<svg width="100%" height="100%" viewBox="0 0 83 21" version="1.1" xmlns="http://www.w3.org/2000/svg" xmlns:xlink="http://www.w3.org/1999/xlink" xml:space="preserve" xmlns:serif="http://www.serif.com/" style="fill-rule:evenodd;clip-rule:evenodd;">
    <g id="Layer-1" serif:id="Layer 1" transform="matrix(1,0,0,1,-112.304,-370.672)">
        <g id="text1202">
            <path id="path1204-8" d="M124.699,378.586C124.699,379.981 124.52,381.202 124.163,382.248C123.806,383.286 123.283,384.15 122.593,384.839C121.912,385.52 121.074,386.031 120.077,386.371C119.081,386.712 117.893,386.882 116.514,386.882L113.101,386.882C112.91,386.882 112.727,386.82 112.553,386.695C112.387,386.562 112.304,386.334 112.304,386.01L112.304,371.635C112.304,371.311 112.387,371.087 112.553,370.962C112.727,370.829 112.91,370.763 113.101,370.763L116.751,370.763C118.146,370.763 119.326,370.945 120.289,371.311C121.252,371.668 122.058,372.187 122.706,372.868C123.362,373.541 123.856,374.359 124.188,375.322C124.528,376.285 124.699,377.373 124.699,378.586L124.699,378.586ZM122.444,378.673C122.444,377.801 122.336,376.991 122.12,376.244C121.904,375.488 121.564,374.836 121.099,374.288C120.642,373.74 120.061,373.312 119.355,373.005C118.649,372.698 117.739,372.544 116.627,372.544L114.447,372.544L114.447,385.088L116.651,385.088C117.681,385.088 118.549,384.96 119.255,384.702C119.961,384.445 120.55,384.05 121.024,383.519C121.497,382.987 121.85,382.323 122.083,381.526C122.324,380.72 122.444,379.769 122.444,378.673Z" style="fill:white;fill-rule:nonzero;"/>
            <path id="path1208-0" d="M140.646,384.864C140.646,385.005 140.642,385.13 140.633,385.238C140.625,385.337 140.608,385.424 140.583,385.499C140.567,385.566 140.542,385.628 140.509,385.686C140.484,385.736 140.417,385.815 140.309,385.923C140.21,386.022 140.035,386.151 139.786,386.309C139.537,386.458 139.255,386.595 138.939,386.72C138.632,386.836 138.296,386.932 137.93,387.007C137.565,387.081 137.187,387.119 136.797,387.119C135.991,387.119 135.277,386.986 134.654,386.72C134.031,386.454 133.508,386.068 133.084,385.562C132.669,385.047 132.349,384.42 132.125,383.681C131.909,382.933 131.801,382.074 131.801,381.102C131.801,379.998 131.934,379.051 132.2,378.262C132.474,377.465 132.844,376.813 133.309,376.306C133.782,375.8 134.334,375.426 134.965,375.185C135.605,374.936 136.294,374.811 137.033,374.811C137.39,374.811 137.735,374.845 138.067,374.911C138.408,374.978 138.719,375.065 139.001,375.173C139.284,375.281 139.533,375.405 139.749,375.546C139.973,375.688 140.135,375.808 140.235,375.908C140.334,376.007 140.401,376.086 140.434,376.144C140.476,376.203 140.509,376.273 140.534,376.356C140.559,376.431 140.575,376.518 140.583,376.618C140.592,376.717 140.596,376.842 140.596,376.991C140.596,377.315 140.559,377.544 140.484,377.677C140.409,377.801 140.318,377.863 140.21,377.863C140.085,377.863 139.94,377.797 139.774,377.664C139.616,377.523 139.413,377.369 139.163,377.203C138.914,377.037 138.611,376.888 138.254,376.755C137.905,376.614 137.49,376.543 137.008,376.543C136.02,376.543 135.26,376.925 134.729,377.689C134.205,378.445 133.944,379.545 133.944,380.99C133.944,381.713 134.01,382.348 134.143,382.896C134.284,383.436 134.488,383.889 134.754,384.254C135.019,384.619 135.343,384.893 135.725,385.076C136.116,385.25 136.56,385.338 137.058,385.338C137.532,385.338 137.947,385.263 138.304,385.113C138.661,384.964 138.968,384.802 139.226,384.628C139.491,384.445 139.712,384.283 139.886,384.142C140.069,383.992 140.21,383.918 140.309,383.918C140.368,383.918 140.417,383.934 140.459,383.968C140.5,384.001 140.534,384.059 140.559,384.142C140.592,384.217 140.613,384.316 140.621,384.441C140.637,384.557 140.646,384.698 140.646,384.864L140.646,384.864Z" style="fill:white;fill-rule:nonzero;"/>
            <path id="path1210-4" d="M151.976,380.479C151.976,380.803 151.893,381.035 151.727,381.177C151.57,381.31 151.387,381.376 151.179,381.376L143.83,381.376C143.83,381.999 143.892,382.559 144.016,383.058C144.141,383.556 144.349,383.984 144.639,384.341C144.93,384.698 145.308,384.972 145.773,385.163C146.238,385.354 146.807,385.449 147.479,385.449C148.011,385.449 148.484,385.408 148.9,385.325C149.315,385.234 149.672,385.134 149.971,385.026C150.278,384.918 150.527,384.823 150.718,384.74C150.918,384.648 151.067,384.603 151.167,384.603C151.225,384.603 151.275,384.619 151.316,384.653C151.366,384.677 151.403,384.719 151.428,384.777C151.453,384.835 151.47,384.918 151.478,385.026C151.495,385.126 151.503,385.25 151.503,385.4C151.503,385.508 151.499,385.603 151.491,385.686C151.482,385.761 151.47,385.832 151.453,385.898C151.445,385.956 151.424,386.01 151.391,386.06C151.366,386.11 151.329,386.16 151.279,386.209C151.237,386.251 151.105,386.326 150.88,386.434C150.656,386.533 150.365,386.633 150.008,386.733C149.651,386.832 149.236,386.919 148.763,386.994C148.298,387.077 147.799,387.119 147.268,387.119C146.346,387.119 145.536,386.99 144.839,386.733C144.149,386.475 143.568,386.093 143.095,385.587C142.621,385.08 142.264,384.445 142.023,383.681C141.782,382.917 141.662,382.028 141.662,381.015C141.662,380.052 141.787,379.188 142.036,378.424C142.285,377.652 142.642,377 143.107,376.468C143.58,375.928 144.149,375.517 144.814,375.235C145.478,374.944 146.221,374.799 147.044,374.799C147.924,374.799 148.671,374.94 149.286,375.222C149.909,375.505 150.419,375.887 150.818,376.368C151.217,376.842 151.507,377.402 151.69,378.05C151.881,378.69 151.977,379.375 151.977,380.106L151.976,380.479ZM149.909,379.869C149.934,378.789 149.693,377.942 149.186,377.327C148.688,376.713 147.945,376.406 146.956,376.406C146.45,376.406 146.005,376.501 145.623,376.692C145.241,376.883 144.922,377.136 144.664,377.452C144.407,377.768 144.207,378.137 144.066,378.561C143.925,378.976 143.846,379.412 143.83,379.869L149.909,379.869Z" style="fill:white;fill-rule:nonzero;"/>
            <path id="path1212-0" d="M165.704,386.533C165.704,386.6 165.687,386.662 165.654,386.72C165.629,386.77 165.575,386.811 165.492,386.844C165.409,386.878 165.297,386.903 165.155,386.919C165.014,386.944 164.832,386.957 164.607,386.957C164.317,386.957 164.08,386.944 163.897,386.919C163.715,386.894 163.578,386.849 163.486,386.782C163.395,386.716 163.32,386.641 163.262,386.558L157.332,378.498L157.332,386.558C157.332,386.616 157.316,386.674 157.283,386.732C157.249,386.782 157.191,386.824 157.108,386.857C157.025,386.882 156.913,386.903 156.772,386.919C156.639,386.944 156.469,386.957 156.261,386.957C156.062,386.957 155.892,386.944 155.75,386.919C155.609,386.902 155.497,386.881 155.414,386.857C155.331,386.824 155.273,386.782 155.24,386.732C155.206,386.674 155.19,386.616 155.19,386.558L155.19,371.087C155.19,371.02 155.206,370.962 155.24,370.912C155.273,370.862 155.331,370.825 155.414,370.8C155.497,370.767 155.609,370.742 155.75,370.725C155.892,370.7 156.062,370.688 156.261,370.688C156.469,370.688 156.639,370.7 156.772,370.725C156.913,370.742 157.025,370.767 157.108,370.8C157.191,370.825 157.249,370.862 157.283,370.912C157.316,370.962 157.332,371.02 157.332,371.087L157.332,378.249L163.038,371.087C163.088,371.012 163.146,370.949 163.212,370.9C163.279,370.85 163.357,370.812 163.449,370.788C163.549,370.754 163.665,370.73 163.798,370.713C163.939,370.696 164.117,370.687 164.333,370.687C164.549,370.687 164.724,370.7 164.856,370.725C164.989,370.742 165.093,370.767 165.168,370.8C165.251,370.833 165.305,370.874 165.33,370.924C165.363,370.974 165.38,371.028 165.38,371.086C165.38,371.194 165.351,371.302 165.292,371.41C165.243,371.518 165.143,371.667 164.994,371.858L159.649,378.249L165.405,385.897C165.546,386.113 165.629,386.263 165.654,386.346C165.687,386.421 165.704,386.483 165.704,386.533L165.704,386.533Z" style="fill:white;fill-rule:nonzero;"/>
            <path id="path1214-0" d="M175.364,380.479C175.364,380.803 175.281,381.035 175.114,381.177C174.957,381.31 174.774,381.376 174.566,381.376L167.217,381.376C167.217,381.999 167.279,382.559 167.404,383.058C167.528,383.556 167.736,383.984 168.026,384.341C168.317,384.698 168.695,384.972 169.16,385.163C169.625,385.354 170.194,385.449 170.867,385.449C171.398,385.449 171.871,385.408 172.287,385.325C172.702,385.234 173.059,385.134 173.358,385.026C173.665,384.918 173.914,384.823 174.105,384.74C174.305,384.648 174.454,384.603 174.554,384.603C174.612,384.603 174.662,384.619 174.703,384.653C174.753,384.677 174.791,384.719 174.815,384.777C174.84,384.835 174.857,384.918 174.865,385.026C174.882,385.126 174.89,385.25 174.89,385.4C174.89,385.508 174.886,385.603 174.878,385.686C174.869,385.761 174.857,385.832 174.84,385.898C174.832,385.956 174.811,386.01 174.778,386.06C174.753,386.11 174.716,386.16 174.666,386.209C174.624,386.251 174.492,386.326 174.267,386.434C174.043,386.533 173.753,386.633 173.395,386.733C173.038,386.832 172.623,386.919 172.15,386.994C171.685,387.077 171.186,387.119 170.655,387.119C169.733,387.119 168.923,386.99 168.226,386.733C167.536,386.475 166.955,386.093 166.482,385.587C166.008,385.08 165.651,384.445 165.41,383.681C165.17,382.917 165.049,382.028 165.049,381.015C165.049,380.052 165.174,379.188 165.423,378.424C165.672,377.652 166.029,377 166.494,376.468C166.968,375.928 167.536,375.517 168.201,375.235C168.865,374.944 169.608,374.799 170.431,374.799C171.311,374.799 172.058,374.94 172.673,375.222C173.296,375.505 173.806,375.887 174.205,376.368C174.604,376.842 174.894,377.402 175.077,378.05C175.268,378.69 175.364,379.375 175.364,380.106L175.364,380.479ZM173.296,379.869C173.321,378.789 173.08,377.942 172.573,377.327C172.075,376.713 171.332,376.406 170.343,376.406C169.837,376.406 169.392,376.501 169.01,376.692C168.628,376.883 168.309,377.136 168.051,377.452C167.794,377.768 167.595,378.137 167.453,378.561C167.312,378.976 167.233,379.412 167.217,379.869L173.296,379.869Z" style="fill:white;fill-rule:nonzero;"/>
            <path id="path1216-5" d="M182.536,386.882L181.041,391.005C180.991,391.138 180.862,391.238 180.655,391.304C180.455,391.379 180.148,391.416 179.733,391.416C179.517,391.416 179.343,391.404 179.21,391.379C179.077,391.362 178.973,391.329 178.898,391.279C178.832,391.229 178.794,391.163 178.786,391.08C178.778,390.997 178.799,390.897 178.848,390.781L180.393,386.882C180.318,386.849 180.248,386.795 180.181,386.72C180.115,386.645 180.069,386.567 180.044,386.483L176.046,375.77C175.979,375.596 175.946,375.459 175.946,375.359C175.946,375.26 175.979,375.181 176.046,375.123C176.112,375.064 176.22,375.027 176.369,375.011C176.519,374.986 176.718,374.973 176.967,374.973C177.217,374.973 177.412,374.982 177.553,374.999C177.694,375.006 177.806,375.027 177.889,375.061C177.972,375.094 178.03,375.144 178.064,375.21C178.105,375.269 178.147,375.352 178.188,375.46L181.39,384.454L181.427,384.454L184.516,375.41C184.566,375.252 184.624,375.152 184.691,375.111C184.765,375.061 184.873,375.028 185.015,375.011C185.156,374.986 185.359,374.974 185.625,374.974C185.858,374.974 186.049,374.986 186.198,375.011C186.348,375.028 186.455,375.065 186.522,375.123C186.597,375.181 186.634,375.26 186.634,375.36C186.634,375.459 186.609,375.584 186.559,375.733L182.536,386.882Z" style="fill:white;fill-rule:nonzero;"/>
            <path id="path1218-5" d="M194.578,383.519C194.578,384.092 194.47,384.602 194.254,385.051C194.046,385.499 193.747,385.877 193.357,386.184C192.966,386.492 192.501,386.724 191.962,386.882C191.422,387.04 190.828,387.119 190.18,387.119C189.782,387.119 189.4,387.085 189.034,387.019C188.677,386.961 188.353,386.886 188.063,386.795C187.78,386.695 187.539,386.595 187.34,386.496C187.141,386.388 186.995,386.292 186.904,386.209C186.813,386.126 186.746,386.01 186.705,385.86C186.663,385.711 186.642,385.507 186.642,385.25C186.642,385.092 186.651,384.959 186.667,384.851C186.684,384.743 186.705,384.656 186.73,384.59C186.755,384.523 186.788,384.478 186.829,384.453C186.879,384.42 186.933,384.403 186.991,384.403C187.083,384.403 187.215,384.461 187.39,384.577C187.573,384.685 187.793,384.806 188.05,384.939C188.316,385.071 188.627,385.196 188.984,385.312C189.341,385.42 189.753,385.474 190.218,385.474C190.566,385.474 190.882,385.437 191.164,385.362C191.447,385.287 191.692,385.179 191.899,385.038C192.107,384.889 192.265,384.702 192.373,384.478C192.489,384.253 192.547,383.988 192.547,383.68C192.547,383.365 192.464,383.099 192.298,382.883C192.14,382.667 191.928,382.476 191.663,382.31C191.397,382.144 191.098,381.999 190.766,381.874C190.434,381.741 190.089,381.604 189.732,381.463C189.383,381.322 189.038,381.164 188.698,380.99C188.366,380.807 188.067,380.587 187.801,380.329C187.535,380.072 187.319,379.765 187.153,379.408C186.995,379.051 186.916,378.623 186.916,378.125C186.916,377.684 187,377.265 187.166,376.866C187.34,376.46 187.597,376.107 187.938,375.808C188.278,375.5 188.702,375.255 189.209,375.073C189.723,374.89 190.321,374.799 191.002,374.799C191.301,374.799 191.6,374.823 191.899,374.873C192.198,374.923 192.468,374.986 192.709,375.06C192.95,375.135 193.153,375.218 193.319,375.309C193.494,375.392 193.623,375.467 193.706,375.534C193.797,375.6 193.855,375.658 193.88,375.708C193.913,375.758 193.934,375.816 193.942,375.882C193.959,375.94 193.971,376.015 193.98,376.106C193.996,376.198 194.005,376.31 194.005,376.443C194.005,376.584 193.996,376.709 193.98,376.816C193.971,376.916 193.951,376.999 193.917,377.066C193.892,377.132 193.859,377.182 193.818,377.215C193.776,377.24 193.73,377.252 193.681,377.252C193.606,377.252 193.498,377.207 193.357,377.116C193.216,377.024 193.033,376.929 192.809,376.829C192.584,376.721 192.319,376.621 192.011,376.53C191.712,376.439 191.368,376.393 190.977,376.393C190.629,376.393 190.321,376.435 190.056,376.518C189.79,376.592 189.57,376.705 189.395,376.854C189.229,376.995 189.101,377.165 189.009,377.365C188.926,377.564 188.885,377.78 188.885,378.012C188.885,378.336 188.968,378.61 189.134,378.835C189.3,379.051 189.516,379.242 189.782,379.408C190.047,379.574 190.35,379.723 190.691,379.856C191.031,379.989 191.376,380.126 191.725,380.267C192.082,380.408 192.431,380.566 192.771,380.741C193.12,380.915 193.427,381.127 193.693,381.376C193.959,381.625 194.171,381.924 194.328,382.273C194.495,382.622 194.578,383.037 194.578,383.518L194.578,383.519Z" style="fill:white;fill-rule:nonzero;"/>
            <g id="text2764" transform="matrix(0.64506,0,0,0.332236,53.1203,247.919)">
                <path id="path2766" d="M118.316,417.816C118.316,417.933 118.287,418.036 118.228,418.124C118.17,418.212 118.067,418.285 117.921,418.343C117.774,418.387 117.577,418.424 117.327,418.453C117.093,418.497 116.793,418.519 116.427,418.519C116.075,418.519 115.775,418.497 115.526,418.453C115.277,418.424 115.079,418.387 114.932,418.343C114.786,418.285 114.683,418.212 114.625,418.124C114.566,418.036 114.537,417.933 114.537,417.816L114.537,390.526C114.537,390.409 114.566,390.306 114.625,390.218C114.698,390.131 114.808,390.065 114.954,390.021C115.116,389.962 115.313,389.918 115.548,389.889C115.797,389.845 116.09,389.823 116.427,389.823C116.793,389.823 117.093,389.845 117.327,389.889C117.577,389.918 117.774,389.962 117.921,390.021C118.067,390.065 118.17,390.131 118.228,390.218C118.287,390.306 118.316,390.409 118.316,390.526L118.316,417.816Z" style="fill:white;fill-rule:nonzero;"/>
            </g>
            <path id="rect38-0-9" d="M130.596,371.902C130.596,371.426 130.209,371.04 129.733,371.04L126.944,371.04C126.467,371.04 126.081,371.426 126.081,371.902L126.081,374.692C126.081,375.168 126.467,375.555 126.944,375.555L129.733,375.555C130.209,375.555 130.596,375.168 130.596,374.692L130.596,371.902Z" style="fill-opacity:0;stroke:white;stroke-width:0.73px;"/>
            <rect id="rect2778-1" x="127.419" y="372.448" width="1.927" height="0.08" style="fill-opacity:0;stroke:white;stroke-width:0.35px;"/>
            <rect id="rect2778-9-9" x="127.364" y="374.069" width="1.927" height="0.08" style="fill-opacity:0;stroke:white;stroke-width:0.35px;"/>
        </g>
    </g>
</svg>
