<svg width="6.05" height="6.05" viewBox="-3.025 -3.025 6.05 6.05" xmlns="http://www.w3.org/2000/svg">
<defs>
<style>
    @import url(../fonts/inconsolata.woff2);
</style>
</defs>
<rect x="-3.025" y="-3.025" width="6.05" height="6.05" rx="0.121" ry="0.121" style="fill: #000030"></rect><g transform="translate(-2.4, -2.4)"><rect x="-0.5" y="-0.5" width="1" height="1" rx="0.08333333333333333" ry="0.08333333333333333" style="fill: #ffffff;"></rect><g transform="scale(0.625) rotate(180, 0, 0)"><rect x="-0.5" y="0.322581" height="0.177419" width="1" style="fill: #000000; stroke: none;"></rect><rect x="-0.4435475" y="0.37096799999999996" width="0.080645" height="0.080645" style="fill: #ffffff;"></rect><rect x="-0.1209675" y="0.37096799999999996" width="0.080645" height="0.080645" style="fill: #ffffff;"></rect><rect x="0.04032249999999998" y="0.37096799999999996" width="0.080645" height="0.080645" style="fill: #ffffff;"></rect><rect x="0.1209675" y="0.37096799999999996" width="0.080645" height="0.080645" style="fill: #ffffff;"></rect><rect x="-0.5" y="-0.5" height="0.177419" width="1" style="fill: #000000; stroke: none;"></rect><rect x="-0.4435475" y="-0.451613" width="0.080645" height="0.080645" style="fill: #ffffff;"></rect><rect x="-0.3629025" y="-0.451613" width="0.080645" height="0.080645" style="fill: #ffffff;"></rect><rect x="-0.2822575" y="-0.451613" width="0.080645" height="0.080645" style="fill: #ffffff;"></rect><rect x="-0.2016125" y="-0.451613" width="0.080645" height="0.080645" style="fill: #ffffff;"></rect><rect x="0.04032249999999998" y="-0.451613" width="0.080645" height="0.080645" style="fill: #ffffff;"></rect><rect x="0.20161249999999997" y="-0.451613" width="0.080645" height="0.080645" style="fill: #ffffff;"></rect><text x="0" y="0.22580599999999995" style="font-family: Inconsolata; fill:#000000;font-size:0.741935px;font-weight:700;letter-spacing:0.04375px;text-anchor:middle;text-align:center;line-height:1;fill-opacity:1;"><tspan>B6</tspan></text></g></g><g transform="translate(-1.2, -2.4)"><rect x="-0.5" y="-0.5" width="1" height="1" rx="0.08333333333333333" ry="0.08333333333333333" style="fill: #ffffff;"></rect><g transform="scale(0.625) rotate(180, 0, 0)"><rect x="-0.5" y="0.322581" height="0.177419" width="1" style="fill: #000000; stroke: none;"></rect><rect x="-0.4435475" y="0.37096799999999996" width="0.080645" height="0.080645" style="fill: #ffffff;"></rect><rect x="-0.2822575" y="0.37096799999999996" width="0.080645" height="0.080645" style="fill: #ffffff;"></rect><rect x="-0.1209675" y="0.37096799999999996" width="0.080645" height="0.080645" style="fill: #ffffff;"></rect><rect x="-0.04032250000000004" y="0.37096799999999996" width="0.080645" height="0.080645" style="fill: #ffffff;"></rect><rect x="0.04032249999999998" y="0.37096799999999996" width="0.080645" height="0.080645" style="fill: #ffffff;"></rect><rect x="0.20161249999999997" y="0.37096799999999996" width="0.080645" height="0.080645" style="fill: #ffffff;"></rect><rect x="0.28225749999999994" y="0.37096799999999996" width="0.080645" height="0.080645" style="fill: #ffffff;"></rect><rect x="-0.5" y="-0.5" height="0.177419" width="1" style="fill: #000000; stroke: none;"></rect><rect x="-0.4435475" y="-0.451613" width="0.080645" height="0.080645" style="fill: #ffffff;"></rect><rect x="-0.3629025" y="-0.451613" width="0.080645" height="0.080645" style="fill: #ffffff;"></rect><rect x="-0.2016125" y="-0.451613" width="0.080645" height="0.080645" style="fill: #ffffff;"></rect><rect x="-0.04032250000000004" y="-0.451613" width="0.080645" height="0.080645" style="fill: #ffffff;"></rect><rect x="0.04032249999999998" y="-0.451613" width="0.080645" height="0.080645" style="fill: #ffffff;"></rect><rect x="0.28225749999999994" y="-0.451613" width="0.080645" height="0.080645" style="fill: #ffffff;"></rect><text x="0" y="0.22580599999999995" style="font-family: Inconsolata; fill:#000000;font-size:0.741935px;font-weight:700;letter-spacing:0.04375px;text-anchor:middle;text-align:center;line-height:1;fill-opacity:1;"><tspan>U6</tspan></text></g></g><g transform="translate(0, -2.4)"><rect x="-0.5" y="-0.5" width="1" height="1" rx="0.08333333333333333" ry="0.08333333333333333" style="fill: #ffffff;"></rect><g transform="scale(0.625) rotate(90, 0, 0)"><rect x="-0.5" y="0.322581" height="0.177419" width="1" style="fill: #000000; stroke: none;"></rect><rect x="-0.4435475" y="0.37096799999999996" width="0.080645" height="0.080645" style="fill: #ffffff;"></rect><rect x="-0.2016125" y="0.37096799999999996" width="0.080645" height="0.080645" style="fill: #ffffff;"></rect><rect x="-0.04032250000000004" y="0.37096799999999996" width="0.080645" height="0.080645" style="fill: #ffffff;"></rect><rect x="0.20161249999999997" y="0.37096799999999996" width="0.080645" height="0.080645" style="fill: #ffffff;"></rect><rect x="-0.5" y="-0.5" height="0.177419" width="1" style="fill: #000000; stroke: none;"></rect><rect x="-0.4435475" y="-0.451613" width="0.080645" height="0.080645" style="fill: #ffffff;"></rect><rect x="-0.3629025" y="-0.451613" width="0.080645" height="0.080645" style="fill: #ffffff;"></rect><rect x="-0.2822575" y="-0.451613" width="0.080645" height="0.080645" style="fill: #ffffff;"></rect><rect x="-0.1209675" y="-0.451613" width="0.080645" height="0.080645" style="fill: #ffffff;"></rect><rect x="0.04032249999999998" y="-0.451613" width="0.080645" height="0.080645" style="fill: #ffffff;"></rect><rect x="0.1209675" y="-0.451613" width="0.080645" height="0.080645" style="fill: #ffffff;"></rect><text x="0" y="0.22580599999999995" style="font-family: Inconsolata; fill:#000000;font-size:0.741935px;font-weight:700;letter-spacing:0.04375px;text-anchor:middle;text-align:center;line-height:1;fill-opacity:1;"><tspan>F6</tspan></text></g></g><g transform="translate(1.2, -2.4)"><rect x="-0.5" y="-0.5" width="1" height="1" rx="0.08333333333333333" ry="0.08333333333333333" style="fill: #ffffff;"></rect><g transform="scale(0.625) rotate(180, 0, 0)"><rect x="-0.5" y="0.322581" height="0.177419" width="1" style="fill: #000000; stroke: none;"></rect><rect x="-0.4435475" y="0.37096799999999996" width="0.080645" height="0.080645" style="fill: #ffffff;"></rect><rect x="-0.2822575" y="0.37096799999999996" width="0.080645" height="0.080645" style="fill: #ffffff;"></rect><rect x="-0.2016125" y="0.37096799999999996" width="0.080645" height="0.080645" style="fill: #ffffff;"></rect><rect x="-0.04032250000000004" y="0.37096799999999996" width="0.080645" height="0.080645" style="fill: #ffffff;"></rect><rect x="0.20161249999999997" y="0.37096799999999996" width="0.080645" height="0.080645" style="fill: #ffffff;"></rect><rect x="0.28225749999999994" y="0.37096799999999996" width="0.080645" height="0.080645" style="fill: #ffffff;"></rect><rect x="-0.5" y="-0.5" height="0.177419" width="1" style="fill: #000000; stroke: none;"></rect><rect x="-0.4435475" y="-0.451613" width="0.080645" height="0.080645" style="fill: #ffffff;"></rect><rect x="-0.3629025" y="-0.451613" width="0.080645" height="0.080645" style="fill: #ffffff;"></rect><rect x="-0.1209675" y="-0.451613" width="0.080645" height="0.080645" style="fill: #ffffff;"></rect><rect x="-0.04032250000000004" y="-0.451613" width="0.080645" height="0.080645" style="fill: #ffffff;"></rect><rect x="0.20161249999999997" y="-0.451613" width="0.080645" height="0.080645" style="fill: #ffffff;"></rect><text x="0" y="0.22580599999999995" style="font-family: Inconsolata; fill:#000000;font-size:0.741935px;font-weight:700;letter-spacing:0.04375px;text-anchor:middle;text-align:center;line-height:1;fill-opacity:1;"><tspan>Y2</tspan></text></g></g><g transform="translate(2.4, -2.4)"><rect x="-0.5" y="-0.5" width="1" height="1" rx="0.08333333333333333" ry="0.08333333333333333" style="fill: #ffffff;"></rect><g transform="scale(0.625)"><rect x="-0.5" y="0.322581" height="0.177419" width="1" style="fill: #000000; stroke: none;"></rect><rect x="-0.4435475" y="0.37096799999999996" width="0.080645" height="0.080645" style="fill: #ffffff;"></rect><rect x="-0.04032250000000004" y="0.37096799999999996" width="0.080645" height="0.080645" style="fill: #ffffff;"></rect><rect x="0.04032249999999998" y="0.37096799999999996" width="0.080645" height="0.080645" style="fill: #ffffff;"></rect><rect x="0.20161249999999997" y="0.37096799999999996" width="0.080645" height="0.080645" style="fill: #ffffff;"></rect><rect x="-0.5" y="-0.5" height="0.177419" width="1" style="fill: #000000; stroke: none;"></rect><rect x="-0.4435475" y="-0.451613" width="0.080645" height="0.080645" style="fill: #ffffff;"></rect><rect x="-0.3629025" y="-0.451613" width="0.080645" height="0.080645" style="fill: #ffffff;"></rect><rect x="-0.2822575" y="-0.451613" width="0.080645" height="0.080645" style="fill: #ffffff;"></rect><rect x="-0.2016125" y="-0.451613" width="0.080645" height="0.080645" style="fill: #ffffff;"></rect><rect x="-0.1209675" y="-0.451613" width="0.080645" height="0.080645" style="fill: #ffffff;"></rect><rect x="0.04032249999999998" y="-0.451613" width="0.080645" height="0.080645" style="fill: #ffffff;"></rect><rect x="0.20161249999999997" y="-0.451613" width="0.080645" height="0.080645" style="fill: #ffffff;"></rect><text x="0" y="0.22580599999999995" style="font-family: Inconsolata; fill:#000000;font-size:0.741935px;font-weight:700;letter-spacing:0.04375px;text-anchor:middle;text-align:center;line-height:1;fill-opacity:1;"><tspan>A5</tspan></text></g></g><g transform="translate(-2.4, -1.2)"><rect x="-0.5" y="-0.5" width="1" height="1" rx="0.08333333333333333" ry="0.08333333333333333" style="fill: #ffffff;"></rect><g transform="scale(0.625) rotate(180, 0, 0)"><rect x="-0.5" y="0.322581" height="0.177419" width="1" style="fill: #000000; stroke: none;"></rect><rect x="-0.4435475" y="0.37096799999999996" width="0.080645" height="0.080645" style="fill: #ffffff;"></rect><rect x="-0.2822575" y="0.37096799999999996" width="0.080645" height="0.080645" style="fill: #ffffff;"></rect><rect x="-0.2016125" y="0.37096799999999996" width="0.080645" height="0.080645" style="fill: #ffffff;"></rect><rect x="-0.04032250000000004" y="0.37096799999999996" width="0.080645" height="0.080645" style="fill: #ffffff;"></rect><rect x="-0.5" y="-0.5" height="0.177419" width="1" style="fill: #000000; stroke: none;"></rect><rect x="-0.4435475" y="-0.451613" width="0.080645" height="0.080645" style="fill: #ffffff;"></rect><rect x="-0.3629025" y="-0.451613" width="0.080645" height="0.080645" style="fill: #ffffff;"></rect><rect x="-0.1209675" y="-0.451613" width="0.080645" height="0.080645" style="fill: #ffffff;"></rect><rect x="0.04032249999999998" y="-0.451613" width="0.080645" height="0.080645" style="fill: #ffffff;"></rect><rect x="0.1209675" y="-0.451613" width="0.080645" height="0.080645" style="fill: #ffffff;"></rect><rect x="0.20161249999999997" y="-0.451613" width="0.080645" height="0.080645" style="fill: #ffffff;"></rect><rect x="0.28225749999999994" y="-0.451613" width="0.080645" height="0.080645" style="fill: #ffffff;"></rect><text x="0" y="0.22580599999999995" style="font-family: Inconsolata; fill:#000000;font-size:0.741935px;font-weight:700;letter-spacing:0.04375px;text-anchor:middle;text-align:center;line-height:1;fill-opacity:1;"><tspan>X5</tspan></text></g></g><g transform="translate(-1.2, -1.2)"><rect x="-0.5" y="-0.5" width="1" height="1" rx="0.08333333333333333" ry="0.08333333333333333" style="fill: #ffffff;"></rect><g transform="scale(0.625) rotate(180, 0, 0)"><rect x="-0.5" y="0.322581" height="0.177419" width="1" style="fill: #000000; stroke: none;"></rect><rect x="-0.4435475" y="0.37096799999999996" width="0.080645" height="0.080645" style="fill: #ffffff;"></rect><rect x="-0.2016125" y="0.37096799999999996" width="0.080645" height="0.080645" style="fill: #ffffff;"></rect><rect x="-0.1209675" y="0.37096799999999996" width="0.080645" height="0.080645" style="fill: #ffffff;"></rect><rect x="0.04032249999999998" y="0.37096799999999996" width="0.080645" height="0.080645" style="fill: #ffffff;"></rect><rect x="0.20161249999999997" y="0.37096799999999996" width="0.080645" height="0.080645" style="fill: #ffffff;"></rect><rect x="0.28225749999999994" y="0.37096799999999996" width="0.080645" height="0.080645" style="fill: #ffffff;"></rect><rect x="-0.5" y="-0.5" height="0.177419" width="1" style="fill: #000000; stroke: none;"></rect><rect x="-0.4435475" y="-0.451613" width="0.080645" height="0.080645" style="fill: #ffffff;"></rect><rect x="-0.3629025" y="-0.451613" width="0.080645" height="0.080645" style="fill: #ffffff;"></rect><rect x="-0.2822575" y="-0.451613" width="0.080645" height="0.080645" style="fill: #ffffff;"></rect><rect x="0.04032249999999998" y="-0.451613" width="0.080645" height="0.080645" style="fill: #ffffff;"></rect><rect x="0.28225749999999994" y="-0.451613" width="0.080645" height="0.080645" style="fill: #ffffff;"></rect><text x="0" y="0.22580599999999995" style="font-family: Inconsolata; fill:#000000;font-size:0.741935px;font-weight:700;letter-spacing:0.04375px;text-anchor:middle;text-align:center;line-height:1;fill-opacity:1;"><tspan>J3</tspan></text></g></g><g transform="translate(0, -1.2)"><rect x="-0.5" y="-0.5" width="1" height="1" rx="0.08333333333333333" ry="0.08333333333333333" style="fill: #ffffff;"></rect><g transform="scale(0.625) rotate(90, 0, 0)"><rect x="-0.5" y="0.322581" height="0.177419" width="1" style="fill: #000000; stroke: none;"></rect><rect x="-0.4435475" y="0.37096799999999996" width="0.080645" height="0.080645" style="fill: #ffffff;"></rect><rect x="-0.2822575" y="0.37096799999999996" width="0.080645" height="0.080645" style="fill: #ffffff;"></rect><rect x="-0.1209675" y="0.37096799999999996" width="0.080645" height="0.080645" style="fill: #ffffff;"></rect><rect x="0.1209675" y="0.37096799999999996" width="0.080645" height="0.080645" style="fill: #ffffff;"></rect><rect x="0.28225749999999994" y="0.37096799999999996" width="0.080645" height="0.080645" style="fill: #ffffff;"></rect><rect x="-0.5" y="-0.5" height="0.177419" width="1" style="fill: #000000; stroke: none;"></rect><rect x="-0.4435475" y="-0.451613" width="0.080645" height="0.080645" style="fill: #ffffff;"></rect><rect x="-0.3629025" y="-0.451613" width="0.080645" height="0.080645" style="fill: #ffffff;"></rect><rect x="-0.2016125" y="-0.451613" width="0.080645" height="0.080645" style="fill: #ffffff;"></rect><rect x="0.1209675" y="-0.451613" width="0.080645" height="0.080645" style="fill: #ffffff;"></rect><rect x="0.20161249999999997" y="-0.451613" width="0.080645" height="0.080645" style="fill: #ffffff;"></rect><rect x="0.28225749999999994" y="-0.451613" width="0.080645" height="0.080645" style="fill: #ffffff;"></rect><text x="0" y="0.22580599999999995" style="font-family: Inconsolata; fill:#000000;font-size:0.741935px;font-weight:700;letter-spacing:0.04375px;text-anchor:middle;text-align:center;line-height:1;fill-opacity:1;"><tspan>R3</tspan></text></g></g><g transform="translate(1.2, -1.2)"><rect x="-0.5" y="-0.5" width="1" height="1" rx="0.08333333333333333" ry="0.08333333333333333" style="fill: #ffffff;"></rect><g transform="scale(0.625) rotate(180, 0, 0)"><rect x="-0.5" y="0.322581" height="0.177419" width="1" style="fill: #000000; stroke: none;"></rect><rect x="-0.4435475" y="0.37096799999999996" width="0.080645" height="0.080645" style="fill: #ffffff;"></rect><rect x="-0.2822575" y="0.37096799999999996" width="0.080645" height="0.080645" style="fill: #ffffff;"></rect><rect x="-0.2016125" y="0.37096799999999996" width="0.080645" height="0.080645" style="fill: #ffffff;"></rect><rect x="0.28225749999999994" y="0.37096799999999996" width="0.080645" height="0.080645" style="fill: #ffffff;"></rect><rect x="-0.5" y="-0.5" height="0.177419" width="1" style="fill: #000000; stroke: none;"></rect><rect x="-0.4435475" y="-0.451613" width="0.080645" height="0.080645" style="fill: #ffffff;"></rect><rect x="-0.3629025" y="-0.451613" width="0.080645" height="0.080645" style="fill: #ffffff;"></rect><rect x="-0.1209675" y="-0.451613" width="0.080645" height="0.080645" style="fill: #ffffff;"></rect><rect x="-0.04032250000000004" y="-0.451613" width="0.080645" height="0.080645" style="fill: #ffffff;"></rect><rect x="0.1209675" y="-0.451613" width="0.080645" height="0.080645" style="fill: #ffffff;"></rect><text x="0" y="0.22580599999999995" style="font-family: Inconsolata; fill:#000000;font-size:0.741935px;font-weight:700;letter-spacing:0.04375px;text-anchor:middle;text-align:center;line-height:1;fill-opacity:1;"><tspan>V4</tspan></text></g></g><g transform="translate(2.4, -1.2)"><rect x="-0.5" y="-0.5" width="1" height="1" rx="0.08333333333333333" ry="0.08333333333333333" style="fill: #ffffff;"></rect><g transform="scale(0.625) rotate(270, 0, 0)"><rect x="-0.5" y="0.322581" height="0.177419" width="1" style="fill: #000000; stroke: none;"></rect><rect x="-0.4435475" y="0.37096799999999996" width="0.080645" height="0.080645" style="fill: #ffffff;"></rect><rect x="-0.1209675" y="0.37096799999999996" width="0.080645" height="0.080645" style="fill: #ffffff;"></rect><rect x="0.04032249999999998" y="0.37096799999999996" width="0.080645" height="0.080645" style="fill: #ffffff;"></rect><rect x="0.1209675" y="0.37096799999999996" width="0.080645" height="0.080645" style="fill: #ffffff;"></rect><rect x="0.28225749999999994" y="0.37096799999999996" width="0.080645" height="0.080645" style="fill: #ffffff;"></rect><rect x="-0.5" y="-0.5" height="0.177419" width="1" style="fill: #000000; stroke: none;"></rect><rect x="-0.4435475" y="-0.451613" width="0.080645" height="0.080645" style="fill: #ffffff;"></rect><rect x="-0.3629025" y="-0.451613" width="0.080645" height="0.080645" style="fill: #ffffff;"></rect><rect x="-0.2822575" y="-0.451613" width="0.080645" height="0.080645" style="fill: #ffffff;"></rect><rect x="-0.2016125" y="-0.451613" width="0.080645" height="0.080645" style="fill: #ffffff;"></rect><rect x="0.04032249999999998" y="-0.451613" width="0.080645" height="0.080645" style="fill: #ffffff;"></rect><rect x="0.1209675" y="-0.451613" width="0.080645" height="0.080645" style="fill: #ffffff;"></rect><rect x="0.28225749999999994" y="-0.451613" width="0.080645" height="0.080645" style="fill: #ffffff;"></rect><text x="0" y="0.22580599999999995" style="font-family: Inconsolata; fill:#000000;font-size:0.741935px;font-weight:700;letter-spacing:0.04375px;text-anchor:middle;text-align:center;line-height:1;fill-opacity:1;"><tspan>C1</tspan></text></g></g><g transform="translate(-2.4, 0)"><rect x="-0.5" y="-0.5" width="1" height="1" rx="0.08333333333333333" ry="0.08333333333333333" style="fill: #ffffff;"></rect><g transform="scale(0.625) rotate(270, 0, 0)"><rect x="-0.5" y="0.322581" height="0.177419" width="1" style="fill: #000000; stroke: none;"></rect><rect x="-0.4435475" y="0.37096799999999996" width="0.080645" height="0.080645" style="fill: #ffffff;"></rect><rect x="-0.2822575" y="0.37096799999999996" width="0.080645" height="0.080645" style="fill: #ffffff;"></rect><rect x="0.04032249999999998" y="0.37096799999999996" width="0.080645" height="0.080645" style="fill: #ffffff;"></rect><rect x="0.20161249999999997" y="0.37096799999999996" width="0.080645" height="0.080645" style="fill: #ffffff;"></rect><rect x="0.28225749999999994" y="0.37096799999999996" width="0.080645" height="0.080645" style="fill: #ffffff;"></rect><rect x="-0.5" y="-0.5" height="0.177419" width="1" style="fill: #000000; stroke: none;"></rect><rect x="-0.4435475" y="-0.451613" width="0.080645" height="0.080645" style="fill: #ffffff;"></rect><rect x="-0.3629025" y="-0.451613" width="0.080645" height="0.080645" style="fill: #ffffff;"></rect><rect x="-0.2016125" y="-0.451613" width="0.080645" height="0.080645" style="fill: #ffffff;"></rect><rect x="-0.1209675" y="-0.451613" width="0.080645" height="0.080645" style="fill: #ffffff;"></rect><rect x="0.04032249999999998" y="-0.451613" width="0.080645" height="0.080645" style="fill: #ffffff;"></rect><text x="0" y="0.22580599999999995" style="font-family: Inconsolata; fill:#000000;font-size:0.741935px;font-weight:700;letter-spacing:0.04375px;text-anchor:middle;text-align:center;line-height:1;fill-opacity:1;"><tspan>N1</tspan></text></g></g><g transform="translate(-1.2, 0)"><rect x="-0.5" y="-0.5" width="1" height="1" rx="0.08333333333333333" ry="0.08333333333333333" style="fill: #ffffff;"></rect><g transform="scale(0.625) rotate(90, 0, 0)"><rect x="-0.5" y="0.322581" height="0.177419" width="1" style="fill: #000000; stroke: none;"></rect><rect x="-0.4435475" y="0.37096799999999996" width="0.080645" height="0.080645" style="fill: #ffffff;"></rect><rect x="-0.2822575" y="0.37096799999999996" width="0.080645" height="0.080645" style="fill: #ffffff;"></rect><rect x="0.1209675" y="0.37096799999999996" width="0.080645" height="0.080645" style="fill: #ffffff;"></rect><rect x="0.20161249999999997" y="0.37096799999999996" width="0.080645" height="0.080645" style="fill: #ffffff;"></rect><rect x="0.28225749999999994" y="0.37096799999999996" width="0.080645" height="0.080645" style="fill: #ffffff;"></rect><rect x="-0.5" y="-0.5" height="0.177419" width="1" style="fill: #000000; stroke: none;"></rect><rect x="-0.4435475" y="-0.451613" width="0.080645" height="0.080645" style="fill: #ffffff;"></rect><rect x="-0.3629025" y="-0.451613" width="0.080645" height="0.080645" style="fill: #ffffff;"></rect><rect x="-0.2016125" y="-0.451613" width="0.080645" height="0.080645" style="fill: #ffffff;"></rect><rect x="-0.1209675" y="-0.451613" width="0.080645" height="0.080645" style="fill: #ffffff;"></rect><rect x="-0.04032250000000004" y="-0.451613" width="0.080645" height="0.080645" style="fill: #ffffff;"></rect><text x="0" y="0.22580599999999995" style="font-family: Inconsolata; fill:#000000;font-size:0.741935px;font-weight:700;letter-spacing:0.04375px;text-anchor:middle;text-align:center;line-height:1;fill-opacity:1;"><tspan>M5</tspan></text></g></g><g transform="translate(0, 0)"><rect x="-0.5" y="-0.5" width="1" height="1" rx="0.08333333333333333" ry="0.08333333333333333" style="fill: #ffffff;"></rect><g transform="scale(0.625) rotate(90, 0, 0)"><rect x="-0.5" y="0.322581" height="0.177419" width="1" style="fill: #000000; stroke: none;"></rect><rect x="-0.4435475" y="0.37096799999999996" width="0.080645" height="0.080645" style="fill: #ffffff;"></rect><rect x="-0.2822575" y="0.37096799999999996" width="0.080645" height="0.080645" style="fill: #ffffff;"></rect><rect x="-0.1209675" y="0.37096799999999996" width="0.080645" height="0.080645" style="fill: #ffffff;"></rect><rect x="0.04032249999999998" y="0.37096799999999996" width="0.080645" height="0.080645" style="fill: #ffffff;"></rect><rect x="0.20161249999999997" y="0.37096799999999996" width="0.080645" height="0.080645" style="fill: #ffffff;"></rect><rect x="0.28225749999999994" y="0.37096799999999996" width="0.080645" height="0.080645" style="fill: #ffffff;"></rect><rect x="-0.5" y="-0.5" height="0.177419" width="1" style="fill: #000000; stroke: none;"></rect><rect x="-0.4435475" y="-0.451613" width="0.080645" height="0.080645" style="fill: #ffffff;"></rect><rect x="-0.3629025" y="-0.451613" width="0.080645" height="0.080645" style="fill: #ffffff;"></rect><rect x="-0.2016125" y="-0.451613" width="0.080645" height="0.080645" style="fill: #ffffff;"></rect><rect x="0.1209675" y="-0.451613" width="0.080645" height="0.080645" style="fill: #ffffff;"></rect><rect x="0.28225749999999994" y="-0.451613" width="0.080645" height="0.080645" style="fill: #ffffff;"></rect><text x="0" y="0.22580599999999995" style="font-family: Inconsolata; fill:#000000;font-size:0.741935px;font-weight:700;letter-spacing:0.04375px;text-anchor:middle;text-align:center;line-height:1;fill-opacity:1;"><tspan>S2</tspan></text></g></g><g transform="translate(1.2, 0)"><rect x="-0.5" y="-0.5" width="1" height="1" rx="0.08333333333333333" ry="0.08333333333333333" style="fill: #ffffff;"></rect><g transform="scale(0.625)"><rect x="-0.5" y="0.322581" height="0.177419" width="1" style="fill: #000000; stroke: none;"></rect><rect x="-0.4435475" y="0.37096799999999996" width="0.080645" height="0.080645" style="fill: #ffffff;"></rect><rect x="-0.2822575" y="0.37096799999999996" width="0.080645" height="0.080645" style="fill: #ffffff;"></rect><rect x="-0.2016125" y="0.37096799999999996" width="0.080645" height="0.080645" style="fill: #ffffff;"></rect><rect x="0.04032249999999998" y="0.37096799999999996" width="0.080645" height="0.080645" style="fill: #ffffff;"></rect><rect x="0.20161249999999997" y="0.37096799999999996" width="0.080645" height="0.080645" style="fill: #ffffff;"></rect><rect x="-0.5" y="-0.5" height="0.177419" width="1" style="fill: #000000; stroke: none;"></rect><rect x="-0.4435475" y="-0.451613" width="0.080645" height="0.080645" style="fill: #ffffff;"></rect><rect x="-0.3629025" y="-0.451613" width="0.080645" height="0.080645" style="fill: #ffffff;"></rect><rect x="-0.1209675" y="-0.451613" width="0.080645" height="0.080645" style="fill: #ffffff;"></rect><rect x="-0.04032250000000004" y="-0.451613" width="0.080645" height="0.080645" style="fill: #ffffff;"></rect><rect x="0.04032249999999998" y="-0.451613" width="0.080645" height="0.080645" style="fill: #ffffff;"></rect><rect x="0.20161249999999997" y="-0.451613" width="0.080645" height="0.080645" style="fill: #ffffff;"></rect><text x="0" y="0.22580599999999995" style="font-family: Inconsolata; fill:#000000;font-size:0.741935px;font-weight:700;letter-spacing:0.04375px;text-anchor:middle;text-align:center;line-height:1;fill-opacity:1;"><tspan>W5</tspan></text></g></g><g transform="translate(2.4, 0)"><rect x="-0.5" y="-0.5" width="1" height="1" rx="0.08333333333333333" ry="0.08333333333333333" style="fill: #ffffff;"></rect><g transform="scale(0.625) rotate(90, 0, 0)"><rect x="-0.5" y="0.322581" height="0.177419" width="1" style="fill: #000000; stroke: none;"></rect><rect x="-0.4435475" y="0.37096799999999996" width="0.080645" height="0.080645" style="fill: #ffffff;"></rect><rect x="-0.2016125" y="0.37096799999999996" width="0.080645" height="0.080645" style="fill: #ffffff;"></rect><rect x="-0.1209675" y="0.37096799999999996" width="0.080645" height="0.080645" style="fill: #ffffff;"></rect><rect x="-0.04032250000000004" y="0.37096799999999996" width="0.080645" height="0.080645" style="fill: #ffffff;"></rect><rect x="0.20161249999999997" y="0.37096799999999996" width="0.080645" height="0.080645" style="fill: #ffffff;"></rect><rect x="-0.5" y="-0.5" height="0.177419" width="1" style="fill: #000000; stroke: none;"></rect><rect x="-0.4435475" y="-0.451613" width="0.080645" height="0.080645" style="fill: #ffffff;"></rect><rect x="-0.3629025" y="-0.451613" width="0.080645" height="0.080645" style="fill: #ffffff;"></rect><rect x="-0.2822575" y="-0.451613" width="0.080645" height="0.080645" style="fill: #ffffff;"></rect><rect x="0.28225749999999994" y="-0.451613" width="0.080645" height="0.080645" style="fill: #ffffff;"></rect><text x="0" y="0.22580599999999995" style="font-family: Inconsolata; fill:#000000;font-size:0.741935px;font-weight:700;letter-spacing:0.04375px;text-anchor:middle;text-align:center;line-height:1;fill-opacity:1;"><tspan>K3</tspan></text></g></g><g transform="translate(-2.4, 1.2)"><rect x="-0.5" y="-0.5" width="1" height="1" rx="0.08333333333333333" ry="0.08333333333333333" style="fill: #ffffff;"></rect><g transform="scale(0.625)"><rect x="-0.5" y="0.322581" height="0.177419" width="1" style="fill: #000000; stroke: none;"></rect><rect x="-0.4435475" y="0.37096799999999996" width="0.080645" height="0.080645" style="fill: #ffffff;"></rect><rect x="-0.2016125" y="0.37096799999999996" width="0.080645" height="0.080645" style="fill: #ffffff;"></rect><rect x="-0.04032250000000004" y="0.37096799999999996" width="0.080645" height="0.080645" style="fill: #ffffff;"></rect><rect x="0.04032249999999998" y="0.37096799999999996" width="0.080645" height="0.080645" style="fill: #ffffff;"></rect><rect x="0.20161249999999997" y="0.37096799999999996" width="0.080645" height="0.080645" style="fill: #ffffff;"></rect><rect x="0.28225749999999994" y="0.37096799999999996" width="0.080645" height="0.080645" style="fill: #ffffff;"></rect><rect x="-0.5" y="-0.5" height="0.177419" width="1" style="fill: #000000; stroke: none;"></rect><rect x="-0.4435475" y="-0.451613" width="0.080645" height="0.080645" style="fill: #ffffff;"></rect><rect x="-0.3629025" y="-0.451613" width="0.080645" height="0.080645" style="fill: #ffffff;"></rect><rect x="-0.2822575" y="-0.451613" width="0.080645" height="0.080645" style="fill: #ffffff;"></rect><rect x="-0.1209675" y="-0.451613" width="0.080645" height="0.080645" style="fill: #ffffff;"></rect><rect x="-0.04032250000000004" y="-0.451613" width="0.080645" height="0.080645" style="fill: #ffffff;"></rect><rect x="0.04032249999999998" y="-0.451613" width="0.080645" height="0.080645" style="fill: #ffffff;"></rect><text x="0" y="0.22580599999999995" style="font-family: Inconsolata; fill:#000000;font-size:0.741935px;font-weight:700;letter-spacing:0.04375px;text-anchor:middle;text-align:center;line-height:1;fill-opacity:1;"><tspan>H1</tspan></text></g></g><g transform="translate(-1.2, 1.2)"><rect x="-0.5" y="-0.5" width="1" height="1" rx="0.08333333333333333" ry="0.08333333333333333" style="fill: #ffffff;"></rect><g transform="scale(0.625)"><rect x="-0.5" y="0.322581" height="0.177419" width="1" style="fill: #000000; stroke: none;"></rect><rect x="-0.4435475" y="0.37096799999999996" width="0.080645" height="0.080645" style="fill: #ffffff;"></rect><rect x="-0.2016125" y="0.37096799999999996" width="0.080645" height="0.080645" style="fill: #ffffff;"></rect><rect x="-0.04032250000000004" y="0.37096799999999996" width="0.080645" height="0.080645" style="fill: #ffffff;"></rect><rect x="0.1209675" y="0.37096799999999996" width="0.080645" height="0.080645" style="fill: #ffffff;"></rect><rect x="0.20161249999999997" y="0.37096799999999996" width="0.080645" height="0.080645" style="fill: #ffffff;"></rect><rect x="0.28225749999999994" y="0.37096799999999996" width="0.080645" height="0.080645" style="fill: #ffffff;"></rect><rect x="-0.5" y="-0.5" height="0.177419" width="1" style="fill: #000000; stroke: none;"></rect><rect x="-0.4435475" y="-0.451613" width="0.080645" height="0.080645" style="fill: #ffffff;"></rect><rect x="-0.3629025" y="-0.451613" width="0.080645" height="0.080645" style="fill: #ffffff;"></rect><rect x="-0.2822575" y="-0.451613" width="0.080645" height="0.080645" style="fill: #ffffff;"></rect><rect x="-0.1209675" y="-0.451613" width="0.080645" height="0.080645" style="fill: #ffffff;"></rect><text x="0" y="0.22580599999999995" style="font-family: Inconsolata; fill:#000000;font-size:0.741935px;font-weight:700;letter-spacing:0.04375px;text-anchor:middle;text-align:center;line-height:1;fill-opacity:1;"><tspan>G4</tspan></text></g></g><g transform="translate(0, 1.2)"><rect x="-0.5" y="-0.5" width="1" height="1" rx="0.08333333333333333" ry="0.08333333333333333" style="fill: #ffffff;"></rect><g transform="scale(0.625) rotate(270, 0, 0)"><rect x="-0.5" y="0.322581" height="0.177419" width="1" style="fill: #000000; stroke: none;"></rect><rect x="-0.4435475" y="0.37096799999999996" width="0.080645" height="0.080645" style="fill: #ffffff;"></rect><rect x="-0.2016125" y="0.37096799999999996" width="0.080645" height="0.080645" style="fill: #ffffff;"></rect><rect x="-0.1209675" y="0.37096799999999996" width="0.080645" height="0.080645" style="fill: #ffffff;"></rect><rect x="-0.04032250000000004" y="0.37096799999999996" width="0.080645" height="0.080645" style="fill: #ffffff;"></rect><rect x="0.04032249999999998" y="0.37096799999999996" width="0.080645" height="0.080645" style="fill: #ffffff;"></rect><rect x="0.28225749999999994" y="0.37096799999999996" width="0.080645" height="0.080645" style="fill: #ffffff;"></rect><rect x="-0.5" y="-0.5" height="0.177419" width="1" style="fill: #000000; stroke: none;"></rect><rect x="-0.4435475" y="-0.451613" width="0.080645" height="0.080645" style="fill: #ffffff;"></rect><rect x="-0.3629025" y="-0.451613" width="0.080645" height="0.080645" style="fill: #ffffff;"></rect><rect x="-0.2822575" y="-0.451613" width="0.080645" height="0.080645" style="fill: #ffffff;"></rect><rect x="0.04032249999999998" y="-0.451613" width="0.080645" height="0.080645" style="fill: #ffffff;"></rect><rect x="0.1209675" y="-0.451613" width="0.080645" height="0.080645" style="fill: #ffffff;"></rect><rect x="0.20161249999999997" y="-0.451613" width="0.080645" height="0.080645" style="fill: #ffffff;"></rect><rect x="0.28225749999999994" y="-0.451613" width="0.080645" height="0.080645" style="fill: #ffffff;"></rect><text x="0" y="0.22580599999999995" style="font-family: Inconsolata; fill:#000000;font-size:0.741935px;font-weight:700;letter-spacing:0.04375px;text-anchor:middle;text-align:center;line-height:1;fill-opacity:1;"><tspan>L4</tspan></text></g></g><g transform="translate(1.2, 1.2)"><rect x="-0.5" y="-0.5" width="1" height="1" rx="0.08333333333333333" ry="0.08333333333333333" style="fill: #ffffff;"></rect><g transform="scale(0.625) rotate(180, 0, 0)"><rect x="-0.5" y="0.322581" height="0.177419" width="1" style="fill: #000000; stroke: none;"></rect><rect x="-0.4435475" y="0.37096799999999996" width="0.080645" height="0.080645" style="fill: #ffffff;"></rect><rect x="-0.2016125" y="0.37096799999999996" width="0.080645" height="0.080645" style="fill: #ffffff;"></rect><rect x="-0.1209675" y="0.37096799999999996" width="0.080645" height="0.080645" style="fill: #ffffff;"></rect><rect x="0.1209675" y="0.37096799999999996" width="0.080645" height="0.080645" style="fill: #ffffff;"></rect><rect x="0.28225749999999994" y="0.37096799999999996" width="0.080645" height="0.080645" style="fill: #ffffff;"></rect><rect x="-0.5" y="-0.5" height="0.177419" width="1" style="fill: #000000; stroke: none;"></rect><rect x="-0.4435475" y="-0.451613" width="0.080645" height="0.080645" style="fill: #ffffff;"></rect><rect x="-0.3629025" y="-0.451613" width="0.080645" height="0.080645" style="fill: #ffffff;"></rect><rect x="-0.2822575" y="-0.451613" width="0.080645" height="0.080645" style="fill: #ffffff;"></rect><rect x="0.04032249999999998" y="-0.451613" width="0.080645" height="0.080645" style="fill: #ffffff;"></rect><rect x="0.20161249999999997" y="-0.451613" width="0.080645" height="0.080645" style="fill: #ffffff;"></rect><rect x="0.28225749999999994" y="-0.451613" width="0.080645" height="0.080645" style="fill: #ffffff;"></rect><text x="0" y="0.22580599999999995" style="font-family: Inconsolata; fill:#000000;font-size:0.741935px;font-weight:700;letter-spacing:0.04375px;text-anchor:middle;text-align:center;line-height:1;fill-opacity:1;"><tspan>I3</tspan></text></g></g><g transform="translate(2.4, 1.2)"><rect x="-0.5" y="-0.5" width="1" height="1" rx="0.08333333333333333" ry="0.08333333333333333" style="fill: #ffffff;"></rect><g transform="scale(0.625) rotate(90, 0, 0)"><rect x="-0.5" y="0.322581" height="0.177419" width="1" style="fill: #000000; stroke: none;"></rect><rect x="-0.4435475" y="0.37096799999999996" width="0.080645" height="0.080645" style="fill: #ffffff;"></rect><rect x="-0.2822575" y="0.37096799999999996" width="0.080645" height="0.080645" style="fill: #ffffff;"></rect><rect x="-0.2016125" y="0.37096799999999996" width="0.080645" height="0.080645" style="fill: #ffffff;"></rect><rect x="-0.04032250000000004" y="0.37096799999999996" width="0.080645" height="0.080645" style="fill: #ffffff;"></rect><rect x="0.04032249999999998" y="0.37096799999999996" width="0.080645" height="0.080645" style="fill: #ffffff;"></rect><rect x="0.1209675" y="0.37096799999999996" width="0.080645" height="0.080645" style="fill: #ffffff;"></rect><rect x="-0.5" y="-0.5" height="0.177419" width="1" style="fill: #000000; stroke: none;"></rect><rect x="-0.4435475" y="-0.451613" width="0.080645" height="0.080645" style="fill: #ffffff;"></rect><rect x="-0.3629025" y="-0.451613" width="0.080645" height="0.080645" style="fill: #ffffff;"></rect><rect x="-0.1209675" y="-0.451613" width="0.080645" height="0.080645" style="fill: #ffffff;"></rect><rect x="-0.04032250000000004" y="-0.451613" width="0.080645" height="0.080645" style="fill: #ffffff;"></rect><rect x="0.1209675" y="-0.451613" width="0.080645" height="0.080645" style="fill: #ffffff;"></rect><rect x="0.20161249999999997" y="-0.451613" width="0.080645" height="0.080645" style="fill: #ffffff;"></rect><rect x="0.28225749999999994" y="-0.451613" width="0.080645" height="0.080645" style="fill: #ffffff;"></rect><text x="0" y="0.22580599999999995" style="font-family: Inconsolata; fill:#000000;font-size:0.741935px;font-weight:700;letter-spacing:0.04375px;text-anchor:middle;text-align:center;line-height:1;fill-opacity:1;"><tspan>Z5</tspan></text></g></g><g transform="translate(-2.4, 2.4)"><rect x="-0.5" y="-0.5" width="1" height="1" rx="0.08333333333333333" ry="0.08333333333333333" style="fill: #ffffff;"></rect><g transform="scale(0.625)"><rect x="-0.5" y="0.322581" height="0.177419" width="1" style="fill: #000000; stroke: none;"></rect><rect x="-0.4435475" y="0.37096799999999996" width="0.080645" height="0.080645" style="fill: #ffffff;"></rect><rect x="-0.1209675" y="0.37096799999999996" width="0.080645" height="0.080645" style="fill: #ffffff;"></rect><rect x="-0.04032250000000004" y="0.37096799999999996" width="0.080645" height="0.080645" style="fill: #ffffff;"></rect><rect x="0.04032249999999998" y="0.37096799999999996" width="0.080645" height="0.080645" style="fill: #ffffff;"></rect><rect x="0.1209675" y="0.37096799999999996" width="0.080645" height="0.080645" style="fill: #ffffff;"></rect><rect x="0.28225749999999994" y="0.37096799999999996" width="0.080645" height="0.080645" style="fill: #ffffff;"></rect><rect x="-0.5" y="-0.5" height="0.177419" width="1" style="fill: #000000; stroke: none;"></rect><rect x="-0.4435475" y="-0.451613" width="0.080645" height="0.080645" style="fill: #ffffff;"></rect><rect x="-0.3629025" y="-0.451613" width="0.080645" height="0.080645" style="fill: #ffffff;"></rect><rect x="-0.2822575" y="-0.451613" width="0.080645" height="0.080645" style="fill: #ffffff;"></rect><rect x="-0.2016125" y="-0.451613" width="0.080645" height="0.080645" style="fill: #ffffff;"></rect><rect x="-0.04032250000000004" y="-0.451613" width="0.080645" height="0.080645" style="fill: #ffffff;"></rect><rect x="0.28225749999999994" y="-0.451613" width="0.080645" height="0.080645" style="fill: #ffffff;"></rect><text x="0" y="0.22580599999999995" style="font-family: Inconsolata; fill:#000000;font-size:0.741935px;font-weight:700;letter-spacing:0.04375px;text-anchor:middle;text-align:center;line-height:1;fill-opacity:1;"><tspan>E1</tspan></text></g></g><g transform="translate(-1.2, 2.4)"><rect x="-0.5" y="-0.5" width="1" height="1" rx="0.08333333333333333" ry="0.08333333333333333" style="fill: #ffffff;"></rect><g transform="scale(0.625) rotate(180, 0, 0)"><rect x="-0.5" y="0.322581" height="0.177419" width="1" style="fill: #000000; stroke: none;"></rect><rect x="-0.4435475" y="0.37096799999999996" width="0.080645" height="0.080645" style="fill: #ffffff;"></rect><rect x="-0.2822575" y="0.37096799999999996" width="0.080645" height="0.080645" style="fill: #ffffff;"></rect><rect x="-0.04032250000000004" y="0.37096799999999996" width="0.080645" height="0.080645" style="fill: #ffffff;"></rect><rect x="0.04032249999999998" y="0.37096799999999996" width="0.080645" height="0.080645" style="fill: #ffffff;"></rect><rect x="0.1209675" y="0.37096799999999996" width="0.080645" height="0.080645" style="fill: #ffffff;"></rect><rect x="0.28225749999999994" y="0.37096799999999996" width="0.080645" height="0.080645" style="fill: #ffffff;"></rect><rect x="-0.5" y="-0.5" height="0.177419" width="1" style="fill: #000000; stroke: none;"></rect><rect x="-0.4435475" y="-0.451613" width="0.080645" height="0.080645" style="fill: #ffffff;"></rect><rect x="-0.3629025" y="-0.451613" width="0.080645" height="0.080645" style="fill: #ffffff;"></rect><rect x="-0.2016125" y="-0.451613" width="0.080645" height="0.080645" style="fill: #ffffff;"></rect><rect x="-0.1209675" y="-0.451613" width="0.080645" height="0.080645" style="fill: #ffffff;"></rect><rect x="0.1209675" y="-0.451613" width="0.080645" height="0.080645" style="fill: #ffffff;"></rect><rect x="0.28225749999999994" y="-0.451613" width="0.080645" height="0.080645" style="fill: #ffffff;"></rect><text x="0" y="0.22580599999999995" style="font-family: Inconsolata; fill:#000000;font-size:0.741935px;font-weight:700;letter-spacing:0.04375px;text-anchor:middle;text-align:center;line-height:1;fill-opacity:1;"><tspan>P4</tspan></text></g></g><g transform="translate(0, 2.4)"><rect x="-0.5" y="-0.5" width="1" height="1" rx="0.08333333333333333" ry="0.08333333333333333" style="fill: #ffffff;"></rect><g transform="scale(0.625) rotate(90, 0, 0)"><rect x="-0.5" y="0.322581" height="0.177419" width="1" style="fill: #000000; stroke: none;"></rect><rect x="-0.4435475" y="0.37096799999999996" width="0.080645" height="0.080645" style="fill: #ffffff;"></rect><rect x="-0.2822575" y="0.37096799999999996" width="0.080645" height="0.080645" style="fill: #ffffff;"></rect><rect x="-0.04032250000000004" y="0.37096799999999996" width="0.080645" height="0.080645" style="fill: #ffffff;"></rect><rect x="0.04032249999999998" y="0.37096799999999996" width="0.080645" height="0.080645" style="fill: #ffffff;"></rect><rect x="-0.5" y="-0.5" height="0.177419" width="1" style="fill: #000000; stroke: none;"></rect><rect x="-0.4435475" y="-0.451613" width="0.080645" height="0.080645" style="fill: #ffffff;"></rect><rect x="-0.3629025" y="-0.451613" width="0.080645" height="0.080645" style="fill: #ffffff;"></rect><rect x="-0.2016125" y="-0.451613" width="0.080645" height="0.080645" style="fill: #ffffff;"></rect><rect x="-0.1209675" y="-0.451613" width="0.080645" height="0.080645" style="fill: #ffffff;"></rect><rect x="0.04032249999999998" y="-0.451613" width="0.080645" height="0.080645" style="fill: #ffffff;"></rect><rect x="0.28225749999999994" y="-0.451613" width="0.080645" height="0.080645" style="fill: #ffffff;"></rect><text x="0" y="0.22580599999999995" style="font-family: Inconsolata; fill:#000000;font-size:0.741935px;font-weight:700;letter-spacing:0.04375px;text-anchor:middle;text-align:center;line-height:1;fill-opacity:1;"><tspan>O5</tspan></text></g></g><g transform="translate(1.2, 2.4)"><rect x="-0.5" y="-0.5" width="1" height="1" rx="0.08333333333333333" ry="0.08333333333333333" style="fill: #ffffff;"></rect><g transform="scale(0.625)"><rect x="-0.5" y="0.322581" height="0.177419" width="1" style="fill: #000000; stroke: none;"></rect><rect x="-0.4435475" y="0.37096799999999996" width="0.080645" height="0.080645" style="fill: #ffffff;"></rect><rect x="-0.2822575" y="0.37096799999999996" width="0.080645" height="0.080645" style="fill: #ffffff;"></rect><rect x="-0.1209675" y="0.37096799999999996" width="0.080645" height="0.080645" style="fill: #ffffff;"></rect><rect x="-0.04032250000000004" y="0.37096799999999996" width="0.080645" height="0.080645" style="fill: #ffffff;"></rect><rect x="0.20161249999999997" y="0.37096799999999996" width="0.080645" height="0.080645" style="fill: #ffffff;"></rect><rect x="0.28225749999999994" y="0.37096799999999996" width="0.080645" height="0.080645" style="fill: #ffffff;"></rect><rect x="-0.5" y="-0.5" height="0.177419" width="1" style="fill: #000000; stroke: none;"></rect><rect x="-0.4435475" y="-0.451613" width="0.080645" height="0.080645" style="fill: #ffffff;"></rect><rect x="-0.3629025" y="-0.451613" width="0.080645" height="0.080645" style="fill: #ffffff;"></rect><rect x="-0.2016125" y="-0.451613" width="0.080645" height="0.080645" style="fill: #ffffff;"></rect><rect x="0.04032249999999998" y="-0.451613" width="0.080645" height="0.080645" style="fill: #ffffff;"></rect><rect x="0.20161249999999997" y="-0.451613" width="0.080645" height="0.080645" style="fill: #ffffff;"></rect><text x="0" y="0.22580599999999995" style="font-family: Inconsolata; fill:#000000;font-size:0.741935px;font-weight:700;letter-spacing:0.04375px;text-anchor:middle;text-align:center;line-height:1;fill-opacity:1;"><tspan>T4</tspan></text></g></g><g transform="translate(2.4, 2.4)"><rect x="-0.5" y="-0.5" width="1" height="1" rx="0.08333333333333333" ry="0.08333333333333333" style="fill: #ffffff;"></rect><g transform="scale(0.625) rotate(270, 0, 0)"><rect x="-0.5" y="0.322581" height="0.177419" width="1" style="fill: #000000; stroke: none;"></rect><rect x="-0.4435475" y="0.37096799999999996" width="0.080645" height="0.080645" style="fill: #ffffff;"></rect><rect x="-0.1209675" y="0.37096799999999996" width="0.080645" height="0.080645" style="fill: #ffffff;"></rect><rect x="-0.04032250000000004" y="0.37096799999999996" width="0.080645" height="0.080645" style="fill: #ffffff;"></rect><rect x="0.1209675" y="0.37096799999999996" width="0.080645" height="0.080645" style="fill: #ffffff;"></rect><rect x="0.20161249999999997" y="0.37096799999999996" width="0.080645" height="0.080645" style="fill: #ffffff;"></rect><rect x="0.28225749999999994" y="0.37096799999999996" width="0.080645" height="0.080645" style="fill: #ffffff;"></rect><rect x="-0.5" y="-0.5" height="0.177419" width="1" style="fill: #000000; stroke: none;"></rect><rect x="-0.4435475" y="-0.451613" width="0.080645" height="0.080645" style="fill: #ffffff;"></rect><rect x="-0.3629025" y="-0.451613" width="0.080645" height="0.080645" style="fill: #ffffff;"></rect><rect x="-0.2822575" y="-0.451613" width="0.080645" height="0.080645" style="fill: #ffffff;"></rect><rect x="-0.2016125" y="-0.451613" width="0.080645" height="0.080645" style="fill: #ffffff;"></rect><rect x="-0.04032250000000004" y="-0.451613" width="0.080645" height="0.080645" style="fill: #ffffff;"></rect><rect x="0.04032249999999998" y="-0.451613" width="0.080645" height="0.080645" style="fill: #ffffff;"></rect><text x="0" y="0.22580599999999995" style="font-family: Inconsolata; fill:#000000;font-size:0.741935px;font-weight:700;letter-spacing:0.04375px;text-anchor:middle;text-align:center;line-height:1;fill-opacity:1;"><tspan>D2</tspan></text></g></g></svg>